<?xml version="1.0" encoding="UTF-8"?>
<svg width="752pt" height="752pt" version="1.1" viewBox="0 0 752 752" xmlns="http://www.w3.org/2000/svg">
 <path d="m337.27 210.96c81.832-0.36328 131.01 90.316 99.09 165.28-7.2227 16.172-8.1094 28.008-3.8164 35.109 4.1953 6.9297 14.062 9.2422 22.547 9.5 2.4062 0.16406 18.613 0 18.613 0l0.39844-35.711c0.20703-6.5312 7.3867-10.41 12.965-7.0039 5.4727 3.1953 116.21 72.164 119.48 74.238 3.2695 2.0703 3.6445 7.7305 0.011719 10.086-2.9062 1.918-120.24 78.59-123.82 78.59-4.2656 0-6.3164-2.0625-7.6914-4.7422l-0.67188-38.645-21.242 0.51953c-78.004-3.9922-117.95-73.289-86.582-149.08 8.8086-21.137 4.1719-42.129-9.582-54-13.273-11.453-31.117-11.059-46.281 3.3984-13.867 13.23-15.59 30.18-4.6719 55.562 22.062 51.543 2.3398 110.25-45.605 135.18-14.422 7.5508-16.477 5.6016-62.973 6.4922h-45.91c-4.7578 0.078125-8.6602-3.7617-8.6602-8.5234v-59.312c0-4.707 3.8164-8.5234 8.5234-8.5234l37.773 0.73828c26.898 0 43.109-1.5586 49.723-8.3516 5.5938-5.7422 5.1992-15.934-3.0078-32.957-28.57-62.129 0.039062-136.66 63.602-161.54 0 0 17.781-6.2188 37.793-6.3008z"/>
</svg>
